<svg width="75" height="72" viewBox="0 0 75 72" fill="none" xmlns="http://www.w3.org/2000/svg">
<rect x="0.5" y="0.5" width="74" height="71" rx="9.5" stroke="#231F20"/>
<path d="M28.3136 29.1927V26.6864C28.3136 21.889 32.2026 18 37 18C41.7973 18 45.6863 21.889 45.6863 26.6864V29.1927" stroke="#6941C6" stroke-miterlimit="10" stroke-linecap="round" stroke-linejoin="round"/>
<path d="M49.315 52.3317H24.6849C23.202 52.3317 22 51.1296 22 49.6468V31.8776C22 30.3948 23.202 29.1927 24.6849 29.1927H49.315C50.7978 29.1927 51.9999 30.3948 51.9999 31.8776V49.6468C51.9999 51.1296 50.7978 52.3317 49.315 52.3317Z" stroke="#6941C6" stroke-miterlimit="10" stroke-linecap="round" stroke-linejoin="round"/>
<path d="M33.1937 37.1755C33.1937 36.9954 33.2063 36.8182 33.2304 36.6447C33.4922 34.7688 35.1214 33.3308 37.0784 33.3702C39.0581 33.4101 40.6981 34.9957 40.8008 36.9731C40.9146 39.1645 39.1692 40.9818 36.9999 40.9818V44.9619" stroke="#6941C6" stroke-miterlimit="10" stroke-linecap="round" stroke-linejoin="round"/>
<circle cx="37" cy="48.5383" r="1.06892" fill="#6941C6"/>
</svg>
