<svg width="162" height="70" viewBox="0 0 162 70" fill="none" xmlns="http://www.w3.org/2000/svg">
<g clip-path="url(#clip0_394_2797)">
<path d="M29.3929 70L29.8058 69.9699C29.6691 69.9899 29.5311 70 29.3929 70Z" fill="#231F20"/>
<path d="M73.684 39.7582L66.481 45.6643L59.278 39.7582H57.6381V54.2608H59.9644V43.0082L66.4851 48.3547L73.0069 43.0082V54.2608H75.3291V39.7582H73.684Z" fill="#D35B0B"/>
<path d="M75.325 39.7582V54.2608H73.0028V43.0082L66.481 48.3547L59.9603 43.0082V54.2608H57.6381V39.7582H59.278L66.481 45.6643L73.684 39.7582H75.325Z" fill="#D35B0B"/>
<path d="M97.1723 39.7582H91.5856C89.5215 39.7582 87.9847 40.1652 87.0083 40.9658C86.032 41.7664 85.5355 43.03 85.5355 44.7194V49.2996C85.5355 50.99 86.0309 52.2526 87.0083 53.0532C87.9857 53.8537 89.5256 54.2608 91.5856 54.2608H97.1723C99.2365 54.2608 100.773 53.8548 101.751 53.0532C102.728 52.2516 103.223 50.99 103.223 49.2996V44.7194C103.223 41.3344 101.301 39.7582 97.1723 39.7582ZM100.9 49.2996C100.9 51.2423 99.541 52.3564 97.1723 52.3564H91.5856C89.2118 52.3564 87.8588 51.2423 87.8588 49.2996V44.7194C87.8588 42.7767 89.217 41.6636 91.5856 41.6636H97.1723C99.5462 41.6636 100.9 42.7767 100.9 44.7194V49.2996Z" fill="#D35B0B"/>
<path d="M97.1723 39.7582H91.5856C89.5215 39.7582 87.9847 40.1652 87.0083 40.9658C86.032 41.7664 85.5355 43.03 85.5355 44.7194V49.2996C85.5355 50.99 86.0309 52.2526 87.0083 53.0532C87.9857 53.8537 89.5256 54.2608 91.5856 54.2608H97.1723C99.2365 54.2608 100.773 53.8548 101.751 53.0532C102.728 52.2516 103.223 50.99 103.223 49.2996V44.7194C103.223 41.3344 101.301 39.7582 97.1723 39.7582ZM100.9 49.2996C100.9 51.2423 99.541 52.3564 97.1723 52.3564H91.5856C89.2118 52.3564 87.8588 51.2423 87.8588 49.2996V44.7194C87.8588 42.7767 89.217 41.6636 91.5856 41.6636H97.1723C99.5462 41.6636 100.9 42.7767 100.9 44.7194V49.2996Z" fill="#D35B0B"/>
<path d="M129.48 54.2608L115.756 43.0082V54.2608H113.433V39.7582H115.074L128.798 51.0107V39.7582H131.121V54.2608H129.48Z" fill="#D35B0B"/>
<path d="M160.659 39.7582H157.378L149.695 46.0568H143.654V39.7582H141.331V54.2608H143.654V47.9622H149.695L157.378 54.2608H160.659L151.82 47.01L160.659 39.7582Z" fill="#D35B0B"/>
<path d="M151.815 47.01L160.659 54.2608H157.378L149.695 47.9611H143.654V54.2608H141.331V39.7582H143.654V46.0568H149.695L157.378 39.7582H160.659L151.815 47.01Z" fill="#D35B0B"/>
<path d="M57.6422 15.8161C59.3143 15.5797 61.0006 15.4601 62.6891 15.4578C66.0785 15.4578 68.5101 16.2594 70.0841 17.7505C71.5785 19.1284 72.3867 20.9206 72.3867 23.2537C72.3867 25.5464 71.5899 27.7279 69.9561 29.3395C68.2841 30.9458 65.4985 31.8574 61.977 31.8574C60.5299 31.87 59.083 31.808 57.6422 31.6716V15.8161ZM59.8096 30.0206C60.4185 30.1182 61.3515 30.1348 62.3485 30.1348C67.5854 30.1494 70.1161 27.3261 70.1161 23.3472C70.147 19.6247 67.7051 17.1701 62.7511 17.1701C61.7637 17.1572 60.7774 17.242 59.8065 17.4234L59.8096 30.0206Z" fill="black"/>
<path d="M76.257 20.1501L79.0963 27.0426C79.3852 27.7622 79.7227 28.7175 79.9219 29.3914H79.9839C80.2161 28.703 80.4896 27.8141 80.7982 26.9762L83.3732 20.1501H85.7243L82.1543 28.651C80.4091 32.9799 79.3089 34.743 77.8608 35.827C76.7514 36.6806 75.68 36.9796 75.1351 37.0419L74.6686 35.2207C75.3528 35.0541 75.9974 34.7531 76.5656 34.3349C77.1601 33.9269 77.9672 33.1004 78.5513 31.8637C78.6433 31.718 78.7015 31.5533 78.7216 31.3819C78.7216 31.2718 78.6814 31.0974 78.5482 30.8056L73.8698 20.1501H76.257Z" fill="black"/>
<path d="M87.7504 23.316C87.7504 22.1614 87.7194 21.1178 87.6544 20.1501H89.5855L89.7062 22.2206H89.7681C90.3575 21.0836 91.8323 19.8625 93.9543 19.8625C95.5282 19.8625 98.4243 20.743 98.4243 25.103V31.7038H96.2569V25.3034C96.2569 23.2735 95.4126 21.6422 93.2504 21.6422C91.6785 21.6422 90.4947 22.7366 90.0716 23.8923C89.9653 24.1995 89.9109 24.5223 89.9106 24.8476V31.7007H87.7432L87.7504 23.316Z" fill="black"/>
<path d="M109.092 31.7038L108.886 30.166H108.824C108.152 31.0714 106.767 31.9904 104.902 31.9904C102.321 31.9904 101.132 30.2158 101.132 28.6677C101.132 25.8984 103.653 24.2734 108.701 24.3232V24.1156C108.701 23.3887 108.482 21.4221 105.827 21.4387C104.638 21.4387 103.365 21.7907 102.472 22.3877L101.971 20.9548C103.079 20.2477 104.581 19.8552 106.13 19.8552C110.044 19.8552 110.857 22.5715 110.857 24.7894V28.8826C110.845 29.8242 110.909 30.7652 111.047 31.6965L109.092 31.7038ZM108.749 25.8319C106.047 25.7655 103.338 26.2473 103.338 28.3925C103.338 29.7288 104.288 30.3955 105.467 30.3955C107.222 30.3955 108.263 29.3187 108.636 28.3915C108.71 28.179 108.749 27.9554 108.749 27.73V25.8319Z" fill="black"/>
<path d="M114.515 23.316C114.515 22.1614 114.484 21.1178 114.42 20.1501H116.304L116.421 22.1562H116.483C117.171 21.0026 118.308 19.8625 120.455 19.8625C122.175 19.8625 123.457 20.9642 123.969 22.3639H124.017C124.355 21.7539 124.816 21.2211 125.369 20.7991C126.143 20.1968 126.963 19.8646 128.208 19.8646C129.735 19.8646 132.344 20.8126 132.344 25.1882V31.7058H130.229V25.4041C130.229 22.9225 129.209 21.6422 127.442 21.6422C126.101 21.6422 125.095 22.5954 124.69 23.586C124.561 23.9246 124.492 24.2828 124.483 24.6451V31.7058H122.37V24.9867C122.37 22.9557 121.366 21.6422 119.713 21.6422C118.23 21.6422 117.202 22.8197 116.811 23.8134C116.688 24.1498 116.625 24.5057 116.626 24.8642V31.7038H114.512L114.515 23.316Z" fill="black"/>
<path d="M138.481 16.7931C138.481 17.5055 137.959 18.1368 137.083 18.1368C136.907 18.1405 136.732 18.1082 136.568 18.042C136.405 17.9757 136.256 17.8768 136.131 17.7513C136.007 17.6258 135.909 17.4762 135.843 17.3115C135.778 17.1468 135.746 16.9705 135.75 16.7931C135.749 16.6133 135.785 16.4352 135.854 16.2694C135.923 16.1037 136.025 15.9536 136.153 15.8282C136.282 15.7029 136.434 15.6047 136.6 15.5397C136.767 15.4746 136.945 15.444 137.124 15.4495C137.302 15.4433 137.479 15.4736 137.645 15.5386C137.811 15.6037 137.962 15.7021 138.089 15.8278C138.216 15.9535 138.316 16.104 138.384 16.2699C138.451 16.4359 138.484 16.6139 138.481 16.7931Z" fill="#D35B0B"/>
<path d="M138.195 20.1501H136.031V31.7048H138.195V20.1501Z" fill="black"/>
<path d="M151.019 31.2407C150.42 31.5231 149.049 31.9904 147.26 31.9904C143.476 31.9904 141.02 29.5087 141.02 26.0718C141.02 22.4282 143.681 19.8615 147.728 19.8615C149.164 19.8615 150.42 20.2249 151.06 20.5592L150.56 22.2123C149.96 21.8873 149.07 21.5768 147.74 21.5768C144.858 21.5768 143.216 23.478 143.222 25.9212C143.222 28.5908 145.16 30.2459 147.66 30.2459C148.683 30.2494 149.695 30.0328 150.627 29.6105L151.019 31.2407Z" fill="black"/>
<path d="M153.457 29.489C154.16 29.9261 155.388 30.3851 156.529 30.3851C158.219 30.3861 158.942 29.5928 158.942 28.6583C158.942 27.6002 158.239 27.1008 156.587 26.5899C154.316 25.9067 153.284 24.7209 153.292 23.3191C153.292 21.4647 154.832 19.8677 157.53 19.8677C158.789 19.8677 159.904 20.1927 160.599 20.6184L160.07 22.1925C159.273 21.7174 158.365 21.464 157.438 21.4584C156.121 21.4584 155.397 22.1697 155.397 23.0824C155.397 24.0989 156.199 24.5215 157.828 25.0449C160.025 25.7478 161.046 26.7342 161.054 28.4974C161.054 30.4546 159.469 31.9955 156.48 31.9955C155.084 31.9955 153.845 31.6467 152.934 31.1451L153.457 29.489Z" fill="black"/>
<path d="M47.9396 34.8489C47.9439 40.4364 46.6102 45.9428 44.0514 50.9019C41.4926 55.8611 37.784 60.1271 33.2395 63.339C31.0611 64.887 28.7136 66.1788 26.243 67.1892C22.1265 68.8463 17.7343 69.7005 13.3005 69.7061H0L0.0175455 69.6916C0.184716 69.565 0.336757 69.4194 0.470633 69.2576C0.500851 69.227 0.526258 69.192 0.545976 69.1537V0H13.3005C22.4851 0.00742464 31.2914 3.68138 37.7859 10.2152C44.2804 16.749 47.9322 25.6087 47.9396 34.8489Z" fill="#231F20"/>
<path d="M23.1466 37.5341C23.1229 37.6151 23.095 37.6919 23.095 37.6919C22.9681 38.0605 22.8102 38.2858 22.1662 39.0771C22.1662 39.0771 20.0607 41.6667 19.7738 42.6157C19.7738 42.6209 19.7614 42.6573 19.7397 42.7289C19.7139 42.8224 19.6871 42.9158 19.6633 43.0103C19.6633 43.0165 19.6633 43.0197 19.6633 43.0248C19.6344 43.1432 19.6107 43.2616 19.5859 43.382L19.555 43.5544C19.5545 43.5627 19.5545 43.571 19.555 43.5793C19.523 43.7683 19.4982 43.9604 19.4755 44.1546C19.4703 44.2065 19.4631 44.2584 19.4569 44.3082C19.4507 44.3581 19.4466 44.4339 19.4404 44.4951C19.4404 44.5107 19.4404 44.5232 19.4404 44.5367C19.4404 44.5502 19.4404 44.5658 19.4404 44.5813C19.4404 44.7018 19.429 44.8233 19.429 44.9437C19.429 45.0901 19.4198 45.249 19.4177 45.4068C19.4177 45.4213 19.4177 45.4348 19.4177 45.4483C19.4177 45.7193 19.4301 45.9904 19.4425 46.2738C19.4401 46.3191 19.4439 46.3646 19.4538 46.4088C19.4664 46.6319 19.4912 46.8541 19.5281 47.0744C19.5388 47.1735 19.555 47.272 19.5766 47.3693C19.5849 47.4409 19.5952 47.5115 19.6055 47.5832C19.6262 47.7047 19.653 47.8241 19.6798 47.9476C19.686 47.9726 19.6922 47.9975 19.6995 48.0224L19.7149 48.1148C19.7696 48.3889 19.8378 48.662 19.9069 48.9361C19.9165 48.9638 19.9248 48.9919 19.9317 49.0202C19.9533 49.095 19.9761 49.1687 19.9977 49.2435C20.1821 49.8557 20.4044 50.4556 20.6634 51.0398C20.7997 51.3543 20.8625 51.696 20.8471 52.0387C20.8455 52.1499 20.8372 52.2608 20.8224 52.371C20.8195 52.3916 20.8153 52.4121 20.81 52.4322C20.7852 52.507 20.7739 52.5672 20.7501 52.6295C20.7384 52.6722 20.7217 52.7133 20.7006 52.7521C20.6626 52.8256 20.6127 52.8923 20.553 52.9493C20.5005 53.0106 20.444 53.0682 20.3837 53.1217L20.3621 53.1394C20.3404 53.158 20.3197 53.1778 20.297 53.1954C20.231 53.2411 20.162 53.2824 20.0906 53.319C19.9879 53.3737 19.8776 53.4125 19.7634 53.4342C19.7542 53.4342 19.7469 53.4405 19.7387 53.4415C19.6744 53.459 19.6088 53.4712 19.5426 53.4779C18.8697 53.5817 18.1224 53.2702 17.9026 52.507C17.5167 51.0957 17.2066 49.6645 16.9737 48.2197C16.9489 48.0598 16.9118 47.8988 16.888 47.7389C16.8889 47.7322 16.8881 47.7254 16.8858 47.7191C16.8835 47.7128 16.8796 47.7071 16.8746 47.7026C16.8519 47.4669 16.8179 47.2519 16.7817 47.0287C16.5878 48.2488 16.1774 49.4239 15.5701 50.4978C15.4806 50.6577 15.3853 50.818 15.2842 50.9786C15.2202 51.0824 15.1552 51.1748 15.0912 51.2693C14.5542 52.0605 13.909 52.7715 13.1746 53.3813C12.8147 53.7634 12.5104 54.1948 12.2705 54.6626C12.1951 54.8163 12.1311 54.9648 12.0754 55.106C11.8332 55.7413 11.7175 56.4183 11.7348 57.0986V57.1328C11.7348 57.1661 11.7348 57.1972 11.7348 57.2294C11.7348 57.2616 11.7348 57.2938 11.7348 57.326C11.7348 57.3374 11.7348 57.3498 11.7348 57.3623C11.804 58.4276 12.1476 59.439 12.5605 60.2894H12.5512C12.743 60.6889 12.9577 61.0768 13.1942 61.4513C13.4006 61.7898 13.607 62.0743 13.7722 62.2955C12.191 63.3681 8.87592 65.2558 4.46167 65.2641C3.13101 65.2661 1.80538 65.0997 0.515991 64.7688C0.526312 45.2639 0.536289 25.7565 0.545922 6.24668C0.627457 6.18646 0.712088 6.12831 0.799816 6.0712L0.928827 6.00579C0.983528 5.97671 1.03204 5.94556 1.09396 5.9113C1.11564 5.87392 1.14041 5.83965 1.16311 5.80746C1.28019 5.62878 1.42887 5.47322 1.60175 5.34852C1.71651 5.26524 1.84226 5.19849 1.97537 5.15019C2.1604 5.00429 2.3733 4.89825 2.60081 4.83869C2.73542 4.80217 2.87423 4.78367 3.01365 4.78366H3.02191C3.1329 4.78313 3.24362 4.79462 3.35218 4.81792C3.52874 4.85567 3.69903 4.91861 3.8579 5.00482H3.86822C3.90094 4.96856 3.93538 4.9339 3.97143 4.90099C4.27993 4.61265 4.68564 4.45272 5.10673 4.45346H5.15833C5.33522 4.456 5.51013 4.4912 5.67438 4.5573C5.83868 4.49138 6.01356 4.45619 6.19042 4.45346H6.24306C6.66186 4.45511 7.06479 4.61481 7.37217 4.90099C7.40932 4.93526 7.44545 4.97056 7.47538 5.00482H7.48363C7.64264 4.91893 7.81289 4.85601 7.98936 4.81792C8.10069 4.79163 8.21456 4.77771 8.32891 4.77639H8.3382C8.47764 4.77618 8.61647 4.79469 8.75104 4.83142C8.97919 4.89097 9.19277 4.99699 9.37855 5.14292C9.51124 5.19144 9.63662 5.25818 9.75114 5.34125C9.92352 5.46653 10.0721 5.62199 10.1898 5.8002C10.2145 5.8355 10.2373 5.86977 10.26 5.90403C10.3147 5.9383 10.3704 5.96945 10.423 5.99852L10.55 6.06394C10.6429 6.12312 10.7296 6.18438 10.8163 6.24668C10.9462 6.3434 11.0706 6.4474 11.1888 6.55819C11.2619 6.56842 11.3342 6.58298 11.4056 6.6018C11.764 6.69218 12.082 6.9009 12.3086 7.19456C12.5351 7.48822 12.6573 7.84986 12.6554 8.22162C12.6571 8.25005 12.6536 8.27855 12.6451 8.30572C12.6451 8.30572 12.6451 8.31195 12.6451 8.31507C12.645 8.34498 12.6426 8.37483 12.6379 8.40436C12.6379 8.41786 12.6379 8.42928 12.6379 8.44278C12.6455 8.48424 12.6416 8.527 12.6265 8.56635C12.7297 8.78855 12.8092 9.03464 12.8949 9.29319C12.9493 9.31941 13.0017 9.34961 13.0518 9.38352C13.3284 9.56102 13.5444 9.81934 13.671 10.1239C13.7594 10.3283 13.8054 10.5488 13.8062 10.7718C13.8071 10.788 13.8071 10.8043 13.8062 10.8206V10.858C13.8042 11.0474 13.7693 11.2351 13.703 11.4124C13.6482 11.5702 13.5718 11.7194 13.476 11.8558C13.476 11.8922 13.4883 11.9171 13.4883 11.9534C13.6671 12.071 13.8193 12.225 13.9352 12.4055C14.0511 12.586 14.1281 12.7889 14.1613 13.0011C14.1765 13.0488 14.1852 13.0985 14.1871 13.1486C14.1965 13.2097 14.2003 13.2716 14.1984 13.3334C14.2095 13.3606 14.2138 13.3903 14.2108 13.4196C14.2099 13.5629 14.1898 13.7054 14.1509 13.8432C14.1509 13.8588 14.1437 13.8744 14.1396 13.8899C14.1352 13.9037 14.1301 13.9173 14.1241 13.9304C14.1133 13.9687 14.0999 14.0062 14.0839 14.0426L14.0777 14.0561C14.0611 14.0976 14.0415 14.1381 14.0209 14.1786C13.9478 14.3176 13.8584 14.4473 13.7546 14.5649C13.7526 14.6185 13.7568 14.6721 13.767 14.7248C14.1238 14.9192 14.3985 15.2372 14.54 15.6198C14.5596 15.6655 14.5751 15.7112 14.5906 15.7579L14.668 15.7309C14.7539 15.6998 14.8428 15.6778 14.9333 15.6655C15.0015 15.6541 15.0705 15.6482 15.1397 15.6479C15.1926 15.6458 15.2456 15.65 15.2976 15.6603C15.3341 15.6498 15.3722 15.6456 15.4101 15.6479C15.7968 15.6507 16.1703 15.7895 16.466 16.0401C16.7618 16.2908 16.9611 16.6376 17.0294 17.0205V17.0289C17.0531 17.105 17.0694 17.1832 17.0779 17.2625C17.2984 17.2666 17.5159 17.3146 17.7178 17.4037L17.7416 17.4141C17.7736 17.4297 17.8056 17.4452 17.8365 17.4629C17.8627 17.4756 17.8882 17.4899 17.9129 17.5055L17.9397 17.521C18.1814 17.67 18.3816 17.8781 18.5216 18.1259C18.6617 18.3738 18.737 18.6533 18.7406 18.9384C18.9975 18.9635 19.2449 19.0488 19.4631 19.1876H19.4724C19.5054 19.2083 19.5395 19.2312 19.5756 19.2561L19.6138 19.2841L19.6664 19.3277C19.8542 19.4837 20.0054 19.6794 20.1094 19.9009C20.2134 20.1223 20.2676 20.3641 20.2681 20.6091C20.2694 20.6267 20.2694 20.6444 20.2681 20.662C20.2702 20.7105 20.2661 20.759 20.2558 20.8064C20.2558 20.8427 20.2434 20.8801 20.2434 20.9175C20.2516 20.9466 20.2483 20.9779 20.2341 21.0047C20.2599 21.0545 20.295 21.1147 20.3187 21.1635C20.4055 21.1807 20.4911 21.204 20.5747 21.2331C20.6118 21.2476 20.6479 21.2611 20.6841 21.2767L20.7006 21.285C20.7336 21.2996 20.7656 21.3151 20.7976 21.3328L20.8234 21.3453C20.8523 21.3629 20.8822 21.3795 20.9111 21.3982L20.938 21.4148C20.9666 21.4333 20.9942 21.4534 21.0205 21.475C21.0276 21.479 21.0342 21.4839 21.0401 21.4896C21.0701 21.5124 21.1 21.5363 21.1268 21.5612C21.3044 21.7193 21.4463 21.9138 21.5432 22.1315C21.64 22.3493 21.6895 22.5853 21.6883 22.8239V22.8436C21.6948 22.8676 21.6979 22.8924 21.6976 22.9173C21.6965 23.1353 21.6501 23.3507 21.5613 23.5497C21.5121 23.6716 21.4494 23.7875 21.3745 23.8954C21.7113 24.0722 21.9786 24.3584 22.1331 24.7074V24.7188C22.1455 24.7469 22.1558 24.7739 22.1662 24.8009L22.1723 24.8227C22.1827 24.8486 22.1899 24.8725 22.1981 24.8985L22.2043 24.9234C22.2116 24.9483 22.2178 24.9753 22.225 25.0023C22.2246 25.0096 22.2246 25.0168 22.225 25.0241C22.225 25.0511 22.2343 25.0791 22.2394 25.1072C22.2389 25.1134 22.2389 25.1196 22.2394 25.1259C22.2394 25.1446 22.2456 25.1643 22.2477 25.183C22.2576 25.2399 22.2617 25.2976 22.2601 25.3553C22.2601 25.3657 22.2601 25.3771 22.2601 25.3886C22.2671 25.4139 22.2702 25.4402 22.2694 25.4664C22.2652 25.7005 22.2145 25.9314 22.1202 26.1454C22.0259 26.3594 21.8899 26.5522 21.7203 26.7125C21.7845 26.7711 21.8426 26.8361 21.8937 26.9066C22.1323 27.1993 22.2622 27.5664 22.2611 27.945V27.9564C22.2672 27.9808 22.27 28.006 22.2694 28.0312C22.2698 28.2813 22.2136 28.5283 22.1051 28.7533C21.9965 28.9784 21.8385 29.1756 21.6429 29.3301C21.7203 29.399 21.7918 29.4744 21.8565 29.5554C22.0433 29.7744 22.1694 30.0391 22.2219 30.3228V30.3342C22.2561 30.4628 22.2721 30.5957 22.2694 30.7288C22.2736 31.1085 22.1462 31.4778 21.9092 31.7733C21.9019 31.7837 21.8926 31.7931 21.8854 31.8045C21.8763 31.8133 21.8676 31.8227 21.8596 31.8325C21.7427 31.9655 21.6055 32.0787 21.453 32.1679C21.5099 32.2356 21.5597 32.309 21.6016 32.387C21.6113 32.4008 21.62 32.4154 21.6274 32.4306C21.6377 32.4493 21.646 32.4711 21.6563 32.4919C21.6666 32.5126 21.6821 32.5531 21.6935 32.5843C21.7048 32.6154 21.71 32.6362 21.7172 32.6622C21.7244 32.6881 21.7275 32.6933 21.7327 32.7099L21.7667 32.8376C21.7781 32.8823 21.7874 32.928 21.7956 32.9685C21.8167 33.0444 21.8251 33.1234 21.8204 33.2021C21.8305 33.2253 21.8348 33.2506 21.8328 33.2758C21.8328 33.6091 21.7017 33.8178 21.551 34.2031C21.4571 34.4398 21.3446 34.7306 21.4344 34.8043C21.5242 34.878 21.6914 34.6485 22.0031 34.6194C22.4851 34.5738 22.8938 35.0431 23.0021 35.1687C23.1774 35.3615 23.3051 35.593 23.3747 35.8447C23.4986 36.3213 23.3716 36.7574 23.1466 37.5341Z" fill="#D35B0B"/>
<path d="M88.0993 61.3111C87.9219 61.2128 87.7339 61.1354 87.5389 61.0806C87.3324 61.0214 87.1312 60.9685 86.9279 60.9207C86.7245 60.873 86.5398 60.8169 86.3716 60.7618C86.219 60.7124 86.0784 60.6314 85.9587 60.5241C85.9051 60.4725 85.8631 60.4099 85.8357 60.3406C85.8083 60.2712 85.796 60.1968 85.7998 60.1222C85.7983 59.9864 85.8399 59.8537 85.9185 59.7432C86.0132 59.6171 86.1434 59.5223 86.2921 59.4712C86.5022 59.3959 86.7245 59.3607 86.9475 59.3673C87.1686 59.3685 87.3887 59.3993 87.6018 59.4587C87.8301 59.5218 88.0469 59.6213 88.2438 59.7536L88.4657 59.2106C88.2508 59.0677 88.0136 58.9624 87.7638 58.8991C87.4973 58.8291 87.2229 58.7942 86.9475 58.7952C86.5972 58.7829 86.2483 58.8467 85.9247 58.9821C85.6824 59.0844 85.4759 59.2568 85.3312 59.4774C85.2037 59.6794 85.1367 59.9141 85.1382 60.1534C85.1283 60.3719 85.1825 60.5886 85.2941 60.7764C85.3977 60.937 85.5396 61.0691 85.7069 61.1606C85.8842 61.259 86.0718 61.3374 86.2663 61.3942C86.4727 61.4555 86.6791 61.5084 86.8773 61.5541C87.0662 61.5958 87.2523 61.6492 87.4346 61.714C87.5871 61.7652 87.7276 61.8472 87.8474 61.9549C87.9002 62.0054 87.9415 62.0666 87.9688 62.1345C87.996 62.2023 88.0085 62.2753 88.0054 62.3484C88.0066 62.4841 87.9639 62.6164 87.8836 62.7254C87.7865 62.8482 87.6554 62.9392 87.5069 62.987C87.2909 63.0567 87.0647 63.0887 86.8381 63.0815C86.5408 63.0824 86.2458 63.0297 85.967 62.9258C85.7158 62.8374 85.4826 62.704 85.2786 62.5322L85.0288 63.0618C85.2544 63.2588 85.5189 63.4057 85.8049 63.4927C86.1377 63.6043 86.4863 63.6604 86.837 63.6588C87.1904 63.671 87.5422 63.6073 87.8691 63.4719C88.1146 63.3705 88.3248 63.1982 88.4729 62.9766C88.6015 62.7777 88.6693 62.5452 88.668 62.3079C88.677 62.0932 88.6232 61.8806 88.5131 61.6964C88.4089 61.5355 88.2667 61.4032 88.0993 61.3111Z" fill="#6D6D6D"/>
<path d="M89.8775 58.4588C89.8205 58.4575 89.7638 58.4676 89.7106 58.4884C89.6575 58.5093 89.609 58.5405 89.5679 58.5803C89.5271 58.6196 89.495 58.6671 89.4735 58.7197C89.452 58.7722 89.4416 58.8287 89.443 58.8855C89.4419 58.9414 89.4524 58.9969 89.4739 59.0484C89.4954 59.0999 89.5275 59.1463 89.5679 59.1846C89.6088 59.2248 89.6572 59.2563 89.7104 59.2773C89.7636 59.2984 89.8204 59.3085 89.8775 59.3071C89.9352 59.3094 89.9927 59.2998 90.0466 59.2788C90.1004 59.2578 90.1494 59.226 90.1905 59.1852C90.2316 59.1444 90.264 59.0956 90.2856 59.0417C90.3072 58.9879 90.3176 58.9301 90.3161 58.872C90.3174 58.8168 90.3069 58.7619 90.2854 58.711C90.2638 58.6602 90.2317 58.6145 90.1913 58.5772C90.1063 58.4976 89.9935 58.455 89.8775 58.4588Z" fill="#6D6D6D"/>
<path d="M90.2016 60.0007H89.5535V63.5996H90.2016V60.0007Z" fill="#6D6D6D"/>
<path d="M96.6738 60.1367C96.4367 60.0196 96.1752 59.9612 95.9111 59.9665C95.579 59.9592 95.2517 60.0463 94.9667 60.2177C94.7901 60.3309 94.6412 60.4829 94.5312 60.6621C94.4526 60.4867 94.3303 60.3347 94.1761 60.2208C93.9145 60.0471 93.6061 59.9583 93.2927 59.9665C93.0082 59.9604 92.727 60.0283 92.4763 60.1637C92.3068 60.2617 92.1631 60.3992 92.0572 60.5645V60.0007H91.438V63.5996H92.0851V61.7462C92.0777 61.5187 92.1241 61.2928 92.2203 61.0868C92.3035 60.9178 92.4355 60.7781 92.5991 60.686C92.7709 60.5935 92.9636 60.547 93.1585 60.551C93.2849 60.543 93.4116 60.5624 93.5299 60.6081C93.6481 60.6538 93.7552 60.7247 93.8438 60.8158C94.0027 60.9923 94.0832 61.255 94.0832 61.6029V63.5996H94.7314V61.7462C94.7238 61.5192 94.7687 61.2935 94.8625 61.0868C94.9436 60.9178 95.0743 60.7778 95.2371 60.686C95.4113 60.5929 95.6065 60.5464 95.8037 60.551C95.9295 60.5434 96.0554 60.5631 96.173 60.6088C96.2905 60.6545 96.3969 60.7251 96.4849 60.8158C96.648 60.9923 96.7285 61.255 96.7285 61.6029V63.5996H97.3766V61.5229C97.3878 61.2202 97.3239 60.9194 97.1909 60.6476C97.0752 60.4276 96.8945 60.2491 96.6738 60.1367Z" fill="#6D6D6D"/>
<path d="M101.399 60.198C101.114 60.0406 100.794 59.9607 100.47 59.9665C100.181 59.9637 99.8973 60.0352 99.6441 60.1741C99.465 60.2804 99.3116 60.4255 99.1952 60.5988V60.0049H98.5759V64.9173H99.2241V63.0275C99.3404 63.1903 99.4887 63.3274 99.6596 63.4304C99.9081 63.5697 100.188 63.6412 100.473 63.6381C100.797 63.6438 101.117 63.5643 101.402 63.4075C101.669 63.2552 101.891 63.0323 102.042 62.7627C102.204 62.4679 102.285 62.135 102.278 61.7981C102.286 61.4624 102.205 61.1307 102.042 60.8376C101.889 60.5696 101.667 60.3484 101.399 60.198ZM101.462 62.4689C101.362 62.6548 101.213 62.8089 101.03 62.9133C100.842 63.0162 100.63 63.0701 100.416 63.0701C100.201 63.0701 99.9897 63.0162 99.801 62.9133C99.6188 62.8085 99.4694 62.6546 99.3696 62.4689C99.2601 62.2635 99.2054 62.0332 99.2107 61.8002C99.2042 61.5671 99.2591 61.3364 99.3696 61.1315C99.4708 60.9484 99.62 60.7968 99.801 60.6933C99.9897 60.5904 100.201 60.5366 100.416 60.5366C100.63 60.5366 100.842 60.5904 101.03 60.6933C101.211 60.7966 101.361 60.9482 101.462 61.1315C101.572 61.3364 101.627 61.5671 101.621 61.8002C101.626 62.0332 101.571 62.2635 101.462 62.4689Z" fill="#6D6D6D"/>
<path d="M103.821 58.5605H103.173V63.5996H103.821V58.5605Z" fill="#6D6D6D"/>
<path d="M105.704 60.0007H105.055V63.5996H105.704V60.0007Z" fill="#6D6D6D"/>
<path d="M105.376 58.4588C105.319 58.4576 105.263 58.4677 105.21 58.4885C105.156 58.5093 105.108 58.5405 105.067 58.5803C105.026 58.6199 104.994 58.6674 104.973 58.7199C104.951 58.7724 104.941 58.8288 104.942 58.8856C104.941 58.9416 104.952 58.9971 104.973 59.0488C104.995 59.1005 105.026 59.1471 105.067 59.1856C105.108 59.2257 105.156 59.2572 105.209 59.2782C105.263 59.2993 105.319 59.3094 105.376 59.3082C105.434 59.3105 105.492 59.3008 105.546 59.2798C105.599 59.2589 105.648 59.227 105.689 59.1862C105.731 59.1455 105.763 59.0966 105.785 59.0428C105.806 58.9889 105.817 58.9312 105.815 58.8731C105.816 58.8178 105.806 58.7629 105.784 58.7121C105.763 58.6612 105.731 58.6156 105.69 58.5782C105.606 58.4982 105.493 58.4552 105.376 58.4588Z" fill="#6D6D6D"/>
<path d="M108.707 60.5355V59.9997H107.668V59.6882C107.655 59.5176 107.708 59.3486 107.816 59.2168C107.873 59.1609 107.941 59.1178 108.015 59.0903C108.089 59.0627 108.169 59.0513 108.248 59.0569C108.34 59.0562 108.431 59.0713 108.518 59.1015C108.601 59.1296 108.679 59.1718 108.748 59.2261L108.943 58.7308C108.847 58.655 108.735 58.6005 108.616 58.5709C108.485 58.5371 108.35 58.52 108.215 58.5201C107.836 58.5201 107.544 58.6239 107.34 58.8316C107.235 58.9443 107.153 59.0773 107.1 59.2225C107.047 59.3677 107.023 59.5222 107.031 59.6768V59.9955H106.424V60.5355H107.031V63.5986H107.679V60.5355H108.707Z" fill="#6D6D6D"/>
<path d="M110.685 62.8769L109.437 60.0007H108.762L110.34 63.5903L110.226 63.8436C110.165 64.0098 110.066 64.159 109.936 64.2787C109.823 64.363 109.686 64.4062 109.545 64.4012C109.427 64.4014 109.31 64.3781 109.2 64.3327C109.09 64.2857 108.99 64.2192 108.903 64.1365L108.628 64.6245C108.747 64.7351 108.887 64.8196 109.04 64.8726C109.201 64.9284 109.371 64.9569 109.541 64.9568C109.714 64.9589 109.885 64.9282 110.047 64.8664C110.21 64.7971 110.354 64.6904 110.469 64.5549C110.617 64.3765 110.734 64.1748 110.817 63.9579L112.551 59.9987H111.917L110.685 62.8769Z" fill="#6D6D6D"/>
<path d="M118.758 58.8461H118.089L116.571 61.3537L115.06 58.8461H114.336L116.213 61.9445V63.5996H116.881V61.9539L118.758 58.8461Z" fill="#6D6D6D"/>
<path d="M121.425 60.2012C121.13 60.047 120.802 59.9665 120.469 59.9665C120.136 59.9665 119.808 60.047 119.512 60.2012C119.237 60.353 119.008 60.5773 118.85 60.8501C118.691 61.1406 118.608 61.4669 118.608 61.7986C118.608 62.1303 118.691 62.4566 118.85 62.7472C119.008 63.0214 119.237 63.2477 119.512 63.4024C119.807 63.5585 120.135 63.6401 120.469 63.6401C120.802 63.6401 121.13 63.5585 121.425 63.4024C121.701 63.2496 121.93 63.0242 122.087 62.7503C122.244 62.4578 122.326 62.1306 122.326 61.7981C122.326 61.4657 122.244 61.1384 122.087 60.846C121.93 60.574 121.701 60.3509 121.425 60.2012ZM121.516 62.4689C121.419 62.6551 121.27 62.8093 121.088 62.9133C120.899 63.02 120.685 63.0741 120.469 63.0701C120.252 63.0751 120.038 63.0209 119.849 62.9133C119.667 62.808 119.518 62.6542 119.417 62.4689C119.306 62.2641 119.25 62.0335 119.255 61.8002C119.248 61.5667 119.304 61.3358 119.417 61.1315C119.519 60.9488 119.669 60.7974 119.849 60.6933C120.038 60.5857 120.252 60.5315 120.469 60.5365C120.685 60.5325 120.899 60.5866 121.088 60.6933C121.269 60.7961 121.417 60.9479 121.516 61.1315C121.624 61.3374 121.677 61.5676 121.671 61.8002C121.676 62.0326 121.623 62.2626 121.516 62.4689Z" fill="#6D6D6D"/>
<path d="M125.915 61.8615C125.921 62.085 125.875 62.3069 125.781 62.5094C125.696 62.6815 125.562 62.8237 125.395 62.9174C125.214 63.0135 125.012 63.0614 124.808 63.0566C124.677 63.0646 124.547 63.0452 124.424 62.9996C124.302 62.954 124.19 62.8832 124.097 62.7918C123.928 62.6153 123.843 62.3505 123.843 61.9964V60.0007H123.194V62.0722C123.184 62.3768 123.25 62.679 123.387 62.9507C123.509 63.1765 123.698 63.3582 123.928 63.4698C124.181 63.5875 124.456 63.6454 124.734 63.6391C125.01 63.6434 125.282 63.5754 125.524 63.4418C125.696 63.3413 125.842 63.2011 125.949 63.0327V63.5986H126.568V60.0007H125.915V61.8615Z" fill="#6D6D6D"/>
<path d="M128.415 60.6331V60.0007H127.796V63.5996H128.443V61.8075C128.443 61.4129 128.546 61.1118 128.746 60.9041C128.855 60.7976 128.984 60.7149 129.126 60.6613C129.269 60.6077 129.42 60.5843 129.572 60.5926H129.643C129.669 60.5927 129.695 60.5948 129.72 60.5988V59.9675C129.42 59.9579 129.123 60.0258 128.857 60.1648C128.666 60.2729 128.512 60.436 128.415 60.6331Z" fill="#6D6D6D"/>
<path d="M135.858 61.2156C135.783 61.1851 135.706 61.1605 135.628 61.1419L135.65 61.1346C135.838 61.0443 135.998 60.9034 136.112 60.7276C136.232 60.532 136.292 60.3052 136.284 60.0755C136.29 59.9008 136.253 59.7272 136.177 59.5702C136.1 59.4132 135.987 59.2776 135.846 59.1753C135.553 58.9558 135.134 58.8461 134.59 58.8461H132.471V63.5996H134.725C135.324 63.5996 135.775 63.4875 136.079 63.2632C136.227 63.1556 136.346 63.0128 136.425 62.8475C136.505 62.6822 136.542 62.4997 136.534 62.3163C136.543 62.0756 136.479 61.8378 136.351 61.6341C136.23 61.4504 136.059 61.3052 135.858 61.2156ZM134.529 59.3933C134.87 59.3933 135.137 59.4567 135.326 59.5833C135.414 59.6498 135.485 59.736 135.535 59.8351C135.584 59.9342 135.61 60.0436 135.61 60.1544C135.61 60.2653 135.584 60.3746 135.535 60.4737C135.485 60.5729 135.414 60.6591 135.326 60.7255C135.137 60.8522 134.87 60.9155 134.529 60.9155H133.145V59.3933H134.529ZM135.561 62.8562C135.362 62.9829 135.077 63.0462 134.702 63.0462H133.154V61.47H134.702C135.077 61.47 135.362 61.5333 135.561 61.6611C135.653 61.7312 135.728 61.822 135.78 61.9262C135.831 62.0305 135.858 62.1453 135.858 62.2617C135.858 62.3782 135.831 62.493 135.78 62.5972C135.728 62.7015 135.653 62.7922 135.561 62.8624V62.8562Z" fill="#6D6D6D"/>
<path d="M140.172 61.8615C140.179 62.0851 140.132 62.3071 140.037 62.5094C139.953 62.6816 139.819 62.824 139.652 62.9174C139.471 63.0135 139.269 63.0614 139.065 63.0566C138.934 63.0647 138.804 63.0453 138.681 62.9997C138.559 62.9541 138.447 62.8833 138.353 62.7918C138.185 62.6153 138.101 62.3502 138.1 61.9964V60.0007H137.452V62.0722C137.441 62.3768 137.508 62.679 137.645 62.9507C137.766 63.1767 137.955 63.3584 138.185 63.4698C138.437 63.5873 138.713 63.6452 138.991 63.6391C139.267 63.6434 139.539 63.5754 139.781 63.4418C139.953 63.3416 140.099 63.2013 140.205 63.0327V63.5986H140.825V60.0007H140.177L140.172 61.8615Z" fill="#6D6D6D"/>
<path d="M144.183 61.8002C144.042 61.7289 143.894 61.6753 143.74 61.6403C143.578 61.6019 143.417 61.5707 143.255 61.5458C143.106 61.5234 142.958 61.4926 142.812 61.4534C142.695 61.4249 142.585 61.3729 142.488 61.3008C142.447 61.2674 142.413 61.2244 142.392 61.1754C142.37 61.1264 142.36 61.0729 142.363 61.0194C142.364 60.9471 142.383 60.8762 142.42 60.8137C142.456 60.7512 142.508 60.6994 142.57 60.6632C142.708 60.5698 142.92 60.5241 143.203 60.5241C143.38 60.524 143.557 60.5442 143.729 60.5843C143.91 60.6277 144.082 60.7037 144.237 60.8086L144.512 60.2894C144.331 60.174 144.131 60.0923 143.922 60.0485C143.688 59.9929 143.45 59.9644 143.21 59.9634C142.94 59.9573 142.671 60.0024 142.417 60.0963C142.213 60.1704 142.035 60.3006 141.901 60.4722C141.779 60.6369 141.715 60.8378 141.718 61.0432C141.71 61.2181 141.752 61.3916 141.84 61.5427C141.921 61.6664 142.033 61.7669 142.164 61.8345C142.305 61.9067 142.455 61.9614 142.609 61.9975C142.771 62.0359 142.933 62.0681 143.095 62.092C143.257 62.1159 143.405 62.146 143.538 62.1771C143.653 62.2012 143.762 62.2497 143.858 62.3194C143.898 62.3507 143.93 62.3911 143.951 62.4374C143.972 62.4836 143.982 62.5343 143.98 62.5852C143.981 62.6575 143.963 62.7289 143.928 62.792C143.893 62.8551 143.842 62.9078 143.78 62.9445C143.648 63.0303 143.431 63.0732 143.129 63.0732C142.896 63.0744 142.664 63.0394 142.441 62.9694C142.24 62.9084 142.05 62.8192 141.874 62.7046L141.604 63.2238C141.795 63.3595 142.008 63.4604 142.234 63.5218C142.509 63.6046 142.795 63.6458 143.082 63.6443C143.363 63.6511 143.643 63.606 143.907 63.5114C144.115 63.439 144.3 63.3113 144.441 63.1417C144.568 62.9819 144.635 62.7824 144.631 62.5779C144.64 62.4058 144.596 62.2351 144.505 62.0889C144.424 61.9666 144.313 61.8672 144.183 61.8002Z" fill="#6D6D6D"/>
<path d="M145.76 58.4588C145.703 58.4575 145.646 58.4675 145.593 58.4884C145.54 58.5092 145.492 58.5405 145.45 58.5803C145.41 58.6197 145.378 58.6671 145.356 58.7197C145.335 58.7723 145.324 58.8287 145.326 58.8856C145.324 58.9414 145.335 58.9969 145.357 59.0484C145.378 59.0999 145.41 59.1463 145.45 59.1846C145.491 59.2248 145.54 59.2563 145.593 59.2774C145.646 59.2984 145.703 59.3085 145.76 59.3071C145.818 59.3096 145.876 59.3 145.929 59.2791C145.983 59.2582 146.033 59.2264 146.074 59.1856C146.115 59.1448 146.147 59.0959 146.169 59.042C146.191 58.9881 146.201 58.9302 146.2 58.8721C146.201 58.8168 146.191 58.7619 146.169 58.7111C146.147 58.6602 146.115 58.6146 146.075 58.5772C145.989 58.4976 145.876 58.4551 145.76 58.4588Z" fill="#6D6D6D"/>
<path d="M146.085 60.0007H145.437V63.5996H146.085V60.0007Z" fill="#6D6D6D"/>
<path d="M150.002 60.1368C149.761 60.0192 149.496 59.9608 149.229 59.9665C148.934 59.9601 148.642 60.0279 148.38 60.1638C148.203 60.262 148.052 60.4016 147.941 60.5708V60.0007H147.322V63.5996H147.97V61.7462C147.962 61.5184 148.009 61.292 148.108 61.0868C148.195 60.9156 148.333 60.7756 148.502 60.686C148.689 60.5924 148.896 60.5461 149.104 60.5511C149.234 60.5431 149.365 60.5625 149.487 60.608C149.61 60.6536 149.721 60.7244 149.815 60.8158C149.983 60.9924 150.069 61.2551 150.069 61.6029V63.5996H150.717V61.523C150.728 61.2197 150.663 60.9187 150.527 60.6476C150.409 60.4268 150.225 60.2483 150.002 60.1368Z" fill="#6D6D6D"/>
<path d="M154.298 60.198C154.018 60.0397 153.701 59.9597 153.38 59.9665C153.058 59.9612 152.74 60.0422 152.459 60.2012C152.191 60.3528 151.97 60.5764 151.821 60.847C151.661 61.1376 151.581 61.4654 151.588 61.7971C151.581 62.1297 151.664 62.4581 151.828 62.7472C151.987 63.0237 152.221 63.2496 152.502 63.3993C152.813 63.5631 153.161 63.6449 153.512 63.637C153.788 63.6407 154.062 63.5899 154.318 63.4875C154.551 63.3932 154.758 63.2444 154.922 63.0535L154.564 62.6319C154.438 62.7737 154.283 62.8852 154.109 62.958C153.925 63.0309 153.728 63.0662 153.531 63.0618C153.294 63.0664 153.06 63.0125 152.85 62.905C152.657 62.8065 152.497 62.6548 152.387 62.4679C152.31 62.3259 152.261 62.1699 152.244 62.0089H155.134C155.134 61.9778 155.141 61.9435 155.144 61.9051C155.147 61.8667 155.144 61.8376 155.144 61.8096C155.152 61.4708 155.074 61.1356 154.918 60.8356C154.774 60.5693 154.559 60.3485 154.298 60.198ZM152.779 60.6694C152.964 60.5693 153.171 60.5169 153.382 60.5169C153.592 60.5169 153.799 60.5693 153.984 60.6694C154.158 60.7693 154.301 60.9164 154.397 61.0941C154.469 61.2354 154.513 61.3902 154.524 61.5489H152.244C152.258 61.3916 152.302 61.2384 152.373 61.0972C152.466 60.919 152.607 60.7707 152.78 60.6694H152.779Z" fill="#6D6D6D"/>
<path d="M158.169 61.8002C158.029 61.7291 157.88 61.6754 157.727 61.6403C157.565 61.6019 157.403 61.5707 157.241 61.5458C157.092 61.5235 156.945 61.4927 156.799 61.4534C156.682 61.425 156.571 61.3731 156.474 61.3007C156.433 61.2671 156.4 61.2241 156.378 61.1751C156.357 61.1262 156.347 61.0728 156.35 61.0193C156.351 60.947 156.37 60.8762 156.407 60.8137C156.443 60.7512 156.494 60.6993 156.557 60.6632C156.695 60.5697 156.908 60.5241 157.19 60.5241C157.368 60.5241 157.544 60.5443 157.717 60.5843C157.898 60.6276 158.069 60.7036 158.224 60.8086L158.499 60.2894C158.319 60.1741 158.119 60.0925 157.91 60.0485C157.676 59.9929 157.437 59.9644 157.198 59.9634C156.928 59.9572 156.659 60.0023 156.405 60.0963C156.201 60.1703 156.022 60.3005 155.889 60.4721C155.768 60.6373 155.704 60.838 155.707 61.0432C155.699 61.218 155.741 61.3914 155.828 61.5427C155.909 61.6664 156.021 61.7669 156.152 61.8344C156.293 61.9065 156.443 61.9613 156.597 61.9975C156.759 62.0359 156.922 62.0681 157.084 62.092C157.246 62.1158 157.394 62.146 157.526 62.1771C157.642 62.2012 157.751 62.2497 157.847 62.3194C157.887 62.3508 157.918 62.3913 157.94 62.4375C157.961 62.4837 157.971 62.5343 157.969 62.5852C157.97 62.6576 157.953 62.7291 157.917 62.7923C157.882 62.8555 157.831 62.9081 157.768 62.9444C157.635 63.0303 157.418 63.0732 157.117 63.0732C156.884 63.0744 156.652 63.0394 156.429 62.9694C156.228 62.9083 156.038 62.8192 155.862 62.7046L155.593 63.2238C155.784 63.3599 155.997 63.4608 156.223 63.5218C156.498 63.6046 156.783 63.6459 157.07 63.6443C157.351 63.651 157.63 63.606 157.895 63.5114C158.103 63.439 158.288 63.3113 158.429 63.1417C158.555 62.9815 158.622 62.7822 158.618 62.5779C158.626 62.4059 158.583 62.2354 158.493 62.0888C158.411 61.9664 158.3 61.867 158.169 61.8002Z" fill="#6D6D6D"/>
<path d="M161.874 62.0847C161.792 61.9638 161.681 61.8659 161.551 61.8002C161.41 61.7289 161.262 61.6753 161.108 61.6403C160.946 61.6019 160.785 61.5707 160.623 61.5458C160.474 61.5234 160.326 61.4926 160.18 61.4534C160.063 61.4249 159.953 61.3729 159.856 61.3008C159.815 61.2674 159.782 61.2244 159.76 61.1754C159.738 61.1264 159.728 61.0729 159.731 61.0194C159.732 60.9471 159.751 60.8762 159.788 60.8137C159.824 60.7512 159.876 60.6994 159.938 60.6632C160.077 60.5698 160.289 60.5241 160.573 60.5241C160.749 60.5241 160.926 60.5443 161.098 60.5843C161.279 60.6278 161.451 60.7038 161.606 60.8086L161.881 60.2894C161.701 60.174 161.501 60.0923 161.291 60.0485C161.058 59.9929 160.819 59.9644 160.579 59.9634C160.309 59.9573 160.04 60.0024 159.786 60.0963C159.583 60.1704 159.404 60.3006 159.27 60.4722C159.148 60.6369 159.084 60.8378 159.087 61.0432C159.079 61.2181 159.121 61.3918 159.209 61.5427C159.29 61.6662 159.402 61.7666 159.532 61.8345C159.674 61.9065 159.824 61.9613 159.978 61.9975C160.14 62.0359 160.302 62.0681 160.464 62.092C160.626 62.1159 160.774 62.146 160.907 62.1771C161.022 62.2012 161.132 62.2497 161.227 62.3194C161.267 62.3507 161.299 62.3911 161.32 62.4374C161.341 62.4836 161.351 62.5343 161.349 62.5852C161.35 62.6575 161.333 62.7289 161.298 62.792C161.263 62.8551 161.212 62.9078 161.15 62.9445C161.017 63.0303 160.8 63.0732 160.498 63.0732C160.053 63.0699 159.618 62.9407 159.242 62.7004L158.973 63.2196C159.164 63.3554 159.378 63.4562 159.604 63.5176C159.878 63.6004 160.164 63.6417 160.451 63.6401C160.732 63.6469 161.012 63.6019 161.277 63.5072C161.484 63.4349 161.669 63.3071 161.81 63.1376C161.937 62.9777 162.004 62.7783 162 62.5738C162.009 62.4016 161.965 62.2309 161.874 62.0847Z" fill="#6D6D6D"/>
</g>
<defs>
<clipPath id="clip0_394_2797">
<rect width="162" height="70" fill="white"/>
</clipPath>
</defs>
</svg>
