<svg width="20" height="18" viewBox="0 0 20 18" fill="none" xmlns="http://www.w3.org/2000/svg">
<path d="M19.3619 5.57153H1V17.0001H19.3619V5.57153Z" stroke="#6941C6" stroke-miterlimit="10" stroke-linecap="round" stroke-linejoin="round"/>
<path d="M1 5.57143L17.0362 1L18.179 5.57143" stroke="#6941C6" stroke-miterlimit="10" stroke-linecap="round" stroke-linejoin="round"/>
<path d="M13.6117 7.85693H15.5146C15.5146 8.6985 16.1968 9.38074 17.0384 9.38074V13.1903C16.1968 13.1903 15.5146 13.8725 15.5146 14.7141H13.6079" stroke="#6941C6" stroke-miterlimit="10" stroke-linecap="round" stroke-linejoin="round"/>
<path d="M6.74991 14.7141H4.84705C4.84705 13.8725 4.1648 13.1903 3.32324 13.1903V9.38074C4.1648 9.38074 4.84705 8.6985 4.84705 7.85693H6.74991" stroke="#6941C6" stroke-miterlimit="10" stroke-linecap="round" stroke-linejoin="round"/>
<path d="M10.1803 13.5695C8.91844 13.5695 7.89551 12.5466 7.89551 11.2848C7.89551 10.0229 8.91844 9 10.1803 9C11.4421 9 12.465 10.0229 12.465 11.2848C12.465 12.5466 11.4421 13.5695 10.1803 13.5695Z" stroke="#6941C6" stroke-miterlimit="10" stroke-linecap="round" stroke-linejoin="round"/>
</svg>
