<svg width="20" height="20" viewBox="0 0 20 20" fill="none" xmlns="http://www.w3.org/2000/svg">
<mask id="mask0_378_3665" style="mask-type:luminance" maskUnits="userSpaceOnUse" x="0" y="0" width="20" height="20">
<path d="M0.5 19.5V0.5H19.5V19.5H0.5Z" fill="white" stroke="white"/>
</mask>
<g mask="url(#mask0_378_3665)">
<path d="M11.4063 8.59375C11.4063 9.45668 12.1058 10.1562 12.9688 10.1562H17.6563C18.5192 10.1562 19.2188 9.45668 19.2188 8.59375V2.34375C19.2188 1.48082 18.5192 0.781251 17.6563 0.781251H12.9688C12.1058 0.781251 11.4063 1.48082 11.4063 2.34375V8.59375Z" stroke="#6941C6" stroke-miterlimit="10"/>
<path d="M0.781251 17.6563C0.781251 18.5192 1.48082 19.2188 2.34375 19.2188H7.03125C7.89418 19.2188 8.59375 18.5192 8.59375 17.6563V11.4063C8.59375 10.5433 7.89418 9.84375 7.03125 9.84375H2.34375C1.48082 9.84375 0.781251 10.5433 0.781251 11.4063V17.6563Z" stroke="#6941C6" stroke-miterlimit="10"/>
<path d="M11.4063 17.6563C11.4063 18.5192 12.1058 19.2188 12.9688 19.2188H17.6563C18.5192 19.2188 19.2188 18.5192 19.2188 17.6563V14.5313C19.2188 13.6683 18.5192 12.9688 17.6563 12.9688H12.9688C12.1058 12.9688 11.4063 13.6683 11.4063 14.5313V17.6563Z" stroke="#6941C6" stroke-miterlimit="10"/>
<path d="M0.781251 5.46875C0.781251 6.33168 1.48082 7.03125 2.34375 7.03125H7.03125C7.89418 7.03125 8.59375 6.33168 8.59375 5.46875V2.34375C8.59375 1.48082 7.89418 0.781251 7.03125 0.781251H2.34375C1.48082 0.781251 0.781251 1.48082 0.781251 2.34375V5.46875Z" stroke="#6941C6" stroke-miterlimit="10"/>
</g>
</svg>
