<?xml version="1.0" encoding="UTF-8"?>
<!DOCTYPE svg PUBLIC "-//W3C//DTD SVG 1.1//EN" "http://www.w3.org/Graphics/SVG/1.1/DTD/svg11.dtd">
<svg xmlns="http://www.w3.org/2000/svg" version="1.1" width="512px" height="512px" style="shape-rendering:geometricPrecision; text-rendering:geometricPrecision; image-rendering:optimizeQuality; fill-rule:evenodd; clip-rule:evenodd" xmlns:xlink="http://www.w3.org/1999/xlink">
<g><path style="opacity:0.928" fill="#000000" d="M 511.5,310.5 C 511.5,318.167 511.5,325.833 511.5,333.5C 506.15,358.518 491.484,375.518 467.5,384.5C 467.963,410.218 467.463,435.885 466,461.5C 461.432,474.401 452.599,482.901 439.5,487C 336.863,488.653 234.196,488.987 131.5,488C 112.544,484.044 101.377,472.544 98,453.5C 97.6667,396.167 97.3333,338.833 97,281.5C 64.6029,252.929 32.1029,224.595 -0.5,196.5C -0.5,193.833 -0.5,191.167 -0.5,188.5C 47.3016,133.859 94.9683,79.0261 142.5,24C 145.5,22 148.5,22 151.5,24C 168.5,38.5 185.5,53 202.5,67.5C 233.289,53.3546 264.122,39.3546 295,25.5C 297.831,25.9583 300.164,27.2916 302,29.5C 311.441,49.3806 320.607,69.3806 329.5,89.5C 345.156,90.3329 360.823,90.8329 376.5,91C 396,110.5 415.5,130 435,149.5C 436.32,184.748 436.987,220.082 437,255.5C 476.731,253.772 501.565,272.105 511.5,310.5 Z M 146.5,41.5 C 147.552,41.3505 148.552,41.5172 149.5,42C 161.685,53.0195 174.018,63.8528 186.5,74.5C 156.295,88.7689 125.962,102.769 95.5,116.5C 92.758,118.933 91.9246,121.933 93,125.5C 107.833,157.833 122.667,190.167 137.5,222.5C 112.204,222.63 98.7042,235.297 97,260.5C 70.2051,238.041 43.7051,215.207 17.5,192C 60.8708,142.05 103.871,91.8835 146.5,41.5 Z M 290.5,43.5 C 291.497,43.4701 292.164,43.9701 292.5,45C 299.117,60.1875 306.117,75.1875 313.5,90C 279.167,90.3333 244.833,90.6667 210.5,91C 208.667,91.5 207.5,92.6667 207,94.5C 206.667,139.833 206.333,185.167 206,230.5C 201.735,227.118 196.902,224.952 191.5,224C 178.925,223.823 166.425,223.323 154,222.5C 139.007,190.339 124.507,158.006 110.5,125.5C 170.818,98.7334 230.818,71.4001 290.5,43.5 Z M 221.5,105.5 C 269.5,105.5 317.5,105.5 365.5,105.5C 365.333,119.171 365.5,132.837 366,146.5C 368.386,154.886 373.886,159.72 382.5,161C 395.496,161.5 408.496,161.667 421.5,161.5C 421.667,193.835 421.5,226.168 421,258.5C 409.67,262.994 400.17,269.994 392.5,279.5C 348.17,280.667 303.837,280.833 259.5,280C 256.228,278.392 253.228,276.392 250.5,274C 241,264.5 231.5,255 222,245.5C 221.5,198.835 221.333,152.168 221.5,105.5 Z M 380.5,116.5 C 390.632,126.131 400.632,135.964 410.5,146C 401.065,146.945 391.732,146.611 382.5,145C 382,144.5 381.5,144 381,143.5C 380.5,134.506 380.334,125.506 380.5,116.5 Z M 126.5,238.5 C 148.566,238.032 170.566,238.532 192.5,240C 194.833,241.667 197.167,243.333 199.5,245C 214.195,260.029 229.195,274.696 244.5,289C 248.453,291.81 252.787,293.81 257.5,295C 299.171,295.167 340.837,295.667 382.5,296.5C 372.009,328.046 379.342,354.546 404.5,376C 418.889,386.098 434.889,390.265 452.5,388.5C 452.667,410.836 452.5,433.169 452,455.5C 449.256,463.245 444.089,468.745 436.5,472C 385.378,473.158 334.211,473.658 283,473.5C 233.167,473.333 183.333,473.167 133.5,473C 122,470.833 115.167,464 113,452.5C 112.333,386.5 112.333,320.5 113,254.5C 114.849,246.826 119.349,241.492 126.5,238.5 Z M 438.5,269.5 C 460.655,268.494 477.821,277.16 490,295.5C 502.885,323.793 497.052,347.293 472.5,366C 443.396,380.182 419.229,374.348 400,348.5C 385.974,317.767 393.141,293.267 421.5,275C 427.137,272.682 432.803,270.849 438.5,269.5 Z"/></g>
<g><path style="opacity:0.922" fill="#000000" d="M 245.5,138.5 C 278.168,138.333 310.835,138.5 343.5,139C 350.167,143.667 350.167,148.333 343.5,153C 310.833,153.667 278.167,153.667 245.5,153C 238.899,148.171 238.899,143.338 245.5,138.5 Z"/></g>
<g><path style="opacity:0.926" fill="#000000" d="M 245.5,172.5 C 296.168,172.333 346.834,172.5 397.5,173C 400.366,174.393 401.699,176.726 401.5,180C 401.699,183.274 400.366,185.607 397.5,187C 346.833,187.667 296.167,187.667 245.5,187C 238.899,182.171 238.899,177.338 245.5,172.5 Z"/></g>
<g><path style="opacity:0.926" fill="#000000" d="M 245.5,206.5 C 296.168,206.333 346.834,206.5 397.5,207C 400.366,208.393 401.699,210.726 401.5,214C 401.699,217.274 400.366,219.607 397.5,221C 346.5,221.667 295.5,221.667 244.5,221C 239.003,215.683 239.336,210.85 245.5,206.5 Z"/></g>
<g><path style="opacity:0.927" fill="#000000" d="M 245.5,240.5 C 295.834,240.333 346.168,240.5 396.5,241C 401.687,243.867 402.854,248.033 400,253.5C 399.25,254.126 398.416,254.626 397.5,255C 346.5,255.667 295.5,255.667 244.5,255C 239.003,249.683 239.336,244.85 245.5,240.5 Z"/></g>
<g><path style="opacity:0.897" fill="#000000" d="M 473.5,292.5 C 481.536,292.92 484.369,296.92 482,304.5C 467.167,319.333 452.333,334.167 437.5,349C 434.167,351 430.833,351 427.5,349C 421,342.5 414.5,336 408,329.5C 405.234,323.031 407.234,319.031 414,317.5C 415.967,317.542 417.801,318.042 419.5,319C 423.5,323 427.5,327 431.5,331C 432.167,331.667 432.833,331.667 433.5,331C 446.425,317.572 459.759,304.738 473.5,292.5 Z"/></g>
<g><path style="opacity:0.92" fill="#000000" d="M 147.5,381.5 C 171.502,381.333 195.502,381.5 219.5,382C 225.448,384.433 226.948,388.6 224,394.5C 223.25,395.126 222.416,395.626 221.5,396C 196.5,396.667 171.5,396.667 146.5,396C 142.788,393.487 141.622,389.987 143,385.5C 144.397,383.93 145.897,382.596 147.5,381.5 Z"/></g>
<g><path style="opacity:0.93" fill="#000000" d="M 147.5,429.5 C 237.834,429.333 328.167,429.5 418.5,430C 424.729,434.171 425.062,438.837 419.5,444C 328.5,444.667 237.5,444.667 146.5,444C 142.788,441.487 141.622,437.987 143,433.5C 144.397,431.93 145.897,430.596 147.5,429.5 Z"/></g>
</svg>
