<svg width="20" height="18" viewBox="0 0 20 18" fill="none" xmlns="http://www.w3.org/2000/svg">
<path d="M19.5 15.4375V12.1875C19.5 11.972 19.4144 11.7653 19.262 11.613C19.1097 11.4606 18.903 11.375 18.6875 11.375C18.472 11.375 18.2653 11.4606 18.113 11.613C17.9606 11.7653 17.875 11.972 17.875 12.1875V15.4375C17.875 15.653 17.7894 15.8597 17.637 16.012C17.4847 16.1644 17.278 16.25 17.0625 16.25H2.4375C2.22201 16.25 2.01535 16.1644 1.86298 16.012C1.7106 15.8597 1.625 15.653 1.625 15.4375V12.1875C1.625 11.972 1.5394 11.7653 1.38702 11.613C1.23465 11.4606 1.02799 11.375 0.8125 11.375C0.597012 11.375 0.390349 11.4606 0.237976 11.613C0.0856026 11.7653 0 11.972 0 12.1875V15.4375C0 16.084 0.256807 16.704 0.713927 17.1611C1.17105 17.6182 1.79103 17.875 2.4375 17.875H17.0625C17.709 17.875 18.329 17.6182 18.7861 17.1611C19.2432 16.704 19.5 16.084 19.5 15.4375ZM14.3163 11.1963L10.2538 14.4463C10.1103 14.5596 9.93282 14.6213 9.75 14.6213C9.56718 14.6213 9.38969 14.5596 9.24625 14.4463L5.18375 11.1963C5.03573 11.0565 4.94554 10.8663 4.93104 10.6633C4.91653 10.4603 4.97877 10.2592 5.10543 10.0998C5.23209 9.94048 5.41394 9.83448 5.61502 9.8028C5.81609 9.77112 6.02173 9.81607 6.19125 9.92875L8.9375 12.1225V0.8125C8.9375 0.597012 9.0231 0.390349 9.17548 0.237976C9.32785 0.0856026 9.53451 0 9.75 0C9.96549 0 10.1722 0.0856026 10.3245 0.237976C10.4769 0.390349 10.5625 0.597012 10.5625 0.8125V12.1225L13.3087 9.92875C13.3906 9.85152 13.4875 9.79212 13.5935 9.75432C13.6995 9.71653 13.8121 9.70115 13.9244 9.70917C14.0366 9.71718 14.1459 9.74842 14.2454 9.8009C14.345 9.85338 14.4325 9.92595 14.5025 10.014C14.5725 10.1021 14.6235 10.2038 14.6521 10.3126C14.6808 10.4214 14.6866 10.5349 14.6691 10.6461C14.6516 10.7572 14.6112 10.8635 14.5504 10.9582C14.4897 11.0529 14.4099 11.134 14.3163 11.1963Z" fill="white"/>
</svg>
