<svg width="19" height="21" viewBox="0 0 19 21" fill="none" xmlns="http://www.w3.org/2000/svg">
<path d="M17.3695 8.11994L17.3192 8.14855C16.783 8.453 16.4808 9.05224 16.5645 9.66309C16.6077 9.97879 16.6301 10.3011 16.6301 10.6287C16.6301 10.9738 16.6052 11.3131 16.5572 11.6449C16.4685 12.2572 16.7732 12.8599 17.3112 13.1655L17.3695 13.1986C18.1549 13.6411 18.4315 14.6341 17.9872 15.4164C17.543 16.1987 16.5462 16.4742 15.7608 16.0317L15.6893 15.9911C15.1451 15.682 14.4708 15.7444 13.9822 16.1356C13.444 16.5664 12.8413 16.92 12.1909 17.1795C11.6121 17.4104 11.2298 17.9672 11.2298 18.5904V18.6068C11.2298 19.5071 10.4999 20.237 9.59959 20.237C8.69928 20.237 7.96933 19.5071 7.96933 18.6068C7.96933 17.9808 7.58358 17.422 7.001 17.193C6.3432 16.9344 5.73372 16.5798 5.18971 16.1464C4.70124 15.7573 4.02823 15.6967 3.48515 16.0052L3.43841 16.0317C2.65303 16.4742 1.65625 16.1987 1.21205 15.4164C0.767763 14.6341 1.0443 13.6411 1.82971 13.1986L1.84279 13.1911C2.38604 12.8826 2.69334 12.2738 2.6029 11.6557C2.55383 11.3205 2.52836 10.9775 2.52836 10.6287C2.52836 10.2945 2.55171 9.96575 2.59671 9.64398C2.68229 9.03255 2.37915 8.43197 1.84226 8.12707L1.82971 8.11994C1.04434 7.6774 0.767763 6.68446 1.21205 5.9021C1.65625 5.11978 2.65303 4.8443 3.43841 5.2868L3.44073 5.28814C3.98605 5.59785 4.66297 5.53659 5.1507 5.14236C5.70524 4.69408 6.32905 4.32821 7.00365 4.06329C7.58533 3.83489 7.96933 3.27563 7.96933 2.65067V2.63026C7.96933 1.72987 8.69928 1 9.59959 1C10.4999 1 11.2298 1.72987 11.2298 2.63026V2.66706C11.2298 3.28912 11.6104 3.84651 12.1883 4.07682C12.8546 4.34235 13.4708 4.70655 14.0189 5.15136C14.5079 5.54821 15.1869 5.61273 15.7346 5.30171L15.7608 5.2868C16.5462 4.8443 17.543 5.11978 17.9872 5.9021C18.4315 6.68446 18.1549 7.6774 17.3695 8.11994Z" stroke="#6941C6" stroke-miterlimit="10" stroke-linecap="round" stroke-linejoin="round"/>
<path d="M6.13574 10.6183C6.13574 12.5316 7.68677 14.0826 9.60003 14.0826C11.5133 14.0826 13.0643 12.5316 13.0643 10.6183C13.0643 8.70508 11.5133 7.15405 9.60003 7.15405C7.68677 7.15405 6.13574 8.70508 6.13574 10.6183Z" stroke="#6941C6" stroke-miterlimit="10"/>
</svg>
