<svg width="26" height="22" viewBox="0 0 26 22" fill="none" xmlns="http://www.w3.org/2000/svg">
<path d="M18.077 21C20.4897 21 22.4455 19.0441 22.4455 16.6315C22.4455 14.2188 20.4897 12.2629 18.077 12.2629C15.6644 12.2629 13.7085 14.2188 13.7085 16.6315C13.7085 19.0441 15.6644 21 18.077 21Z" stroke="#6941C6" stroke-width="2" stroke-miterlimit="10" stroke-linecap="round" stroke-linejoin="round"/>
<path d="M7.75134 10.6744C10.164 10.6744 12.1199 8.71858 12.1199 6.3059C12.1199 3.89323 10.164 1.93738 7.75134 1.93738C5.33867 1.93738 3.38281 3.89323 3.38281 6.3059C3.38281 8.71858 5.33867 10.6744 7.75134 10.6744Z" stroke="#6941C6" stroke-width="2" stroke-miterlimit="10" stroke-linecap="round" stroke-linejoin="round"/>
<path d="M24.8281 16.6315H22.4453" stroke="#6941C6" stroke-width="2" stroke-miterlimit="10" stroke-linecap="round" stroke-linejoin="round"/>
<path d="M1 6.30591H3.38282" stroke="#6941C6" stroke-width="2" stroke-miterlimit="10" stroke-linecap="round" stroke-linejoin="round"/>
<path d="M13.7084 16.6315H1" stroke="#6941C6" stroke-width="2" stroke-miterlimit="10" stroke-linecap="round" stroke-linejoin="round"/>
<path d="M12.1196 6.30591H24.828" stroke="#6941C6" stroke-width="2" stroke-miterlimit="10" stroke-linecap="round" stroke-linejoin="round"/>
</svg>
