<svg width="65" height="18" viewBox="0 0 65 18" fill="none" xmlns="http://www.w3.org/2000/svg">
<path d="M9.68583 5.46875H10.8108V11.2402C10.8108 11.8809 10.6682 12.4141 10.3831 12.8398C10.0979 13.2656 9.71903 13.5859 9.24637 13.8008C8.77762 14.0117 8.26786 14.1172 7.71708 14.1172C7.13895 14.1172 6.61551 14.0117 6.14676 13.8008C5.68192 13.5859 5.31278 13.2656 5.03934 12.8398C4.76981 12.4141 4.63504 11.8809 4.63504 11.2402V5.46875H5.75418V11.2402C5.75418 11.6855 5.83622 12.0527 6.00028 12.3418C6.16434 12.6309 6.39286 12.8457 6.68583 12.9863C6.9827 13.127 7.32645 13.1973 7.71708 13.1973C8.11161 13.1973 8.45536 13.127 8.74833 12.9863C9.0452 12.8457 9.27567 12.6309 9.43973 12.3418C9.60379 12.0527 9.68583 11.6855 9.68583 11.2402V5.46875ZM13.5061 8.87891V16.4375H12.4163V7.66016H13.4124L13.5061 8.87891ZM17.7776 10.7773V10.9004C17.7776 11.3613 17.7229 11.7891 17.6136 12.1836C17.5042 12.5742 17.344 12.9141 17.1331 13.2031C16.9261 13.4922 16.6702 13.7168 16.3655 13.877C16.0608 14.0371 15.7112 14.1172 15.3167 14.1172C14.9143 14.1172 14.5589 14.0508 14.2503 13.918C13.9417 13.7852 13.68 13.5918 13.4651 13.3379C13.2503 13.084 13.0784 12.7793 12.9495 12.4238C12.8245 12.0684 12.7386 11.668 12.6917 11.2227V10.5664C12.7386 10.0977 12.8265 9.67773 12.9554 9.30664C13.0843 8.93555 13.2542 8.61914 13.4651 8.35742C13.68 8.0918 13.9397 7.89062 14.2444 7.75391C14.5491 7.61328 14.9007 7.54297 15.2991 7.54297C15.6975 7.54297 16.0511 7.62109 16.3597 7.77734C16.6682 7.92969 16.928 8.14844 17.139 8.43359C17.3499 8.71875 17.5081 9.06055 17.6136 9.45898C17.7229 9.85352 17.7776 10.293 17.7776 10.7773ZM16.6878 10.9004V10.7773C16.6878 10.4609 16.6546 10.1641 16.5882 9.88672C16.5218 9.60547 16.4182 9.35938 16.2776 9.14844C16.1409 8.93359 15.9651 8.76562 15.7503 8.64453C15.5354 8.51953 15.2796 8.45703 14.9827 8.45703C14.7093 8.45703 14.471 8.50391 14.2679 8.59766C14.0686 8.69141 13.8987 8.81836 13.7581 8.97852C13.6175 9.13477 13.5022 9.31445 13.4124 9.51758C13.3265 9.7168 13.262 9.92383 13.219 10.1387V11.6562C13.2972 11.9297 13.4065 12.1875 13.5472 12.4297C13.6878 12.668 13.8753 12.8613 14.1097 13.0098C14.344 13.1543 14.639 13.2266 14.9944 13.2266C15.2874 13.2266 15.5393 13.166 15.7503 13.0449C15.9651 12.9199 16.1409 12.75 16.2776 12.5352C16.4182 12.3203 16.5218 12.0742 16.5882 11.7969C16.6546 11.5156 16.6878 11.2168 16.6878 10.9004ZM20.3382 5V14H19.2483V5H20.3382ZM21.7913 10.9004V10.7656C21.7913 10.3086 21.8577 9.88477 21.9905 9.49414C22.1233 9.09961 22.3147 8.75781 22.5647 8.46875C22.8147 8.17578 23.1175 7.94922 23.4729 7.78906C23.8284 7.625 24.2268 7.54297 24.6682 7.54297C25.1136 7.54297 25.514 7.625 25.8694 7.78906C26.2288 7.94922 26.5335 8.17578 26.7835 8.46875C27.0374 8.75781 27.2307 9.09961 27.3636 9.49414C27.4964 9.88477 27.5628 10.3086 27.5628 10.7656V10.9004C27.5628 11.3574 27.4964 11.7812 27.3636 12.1719C27.2307 12.5625 27.0374 12.9043 26.7835 13.1973C26.5335 13.4863 26.2307 13.7129 25.8753 13.877C25.5237 14.0371 25.1253 14.1172 24.68 14.1172C24.2347 14.1172 23.8343 14.0371 23.4788 13.877C23.1233 13.7129 22.8186 13.4863 22.5647 13.1973C22.3147 12.9043 22.1233 12.5625 21.9905 12.1719C21.8577 11.7812 21.7913 11.3574 21.7913 10.9004ZM22.8753 10.7656V10.9004C22.8753 11.2168 22.9124 11.5156 22.9866 11.7969C23.0608 12.0742 23.1722 12.3203 23.3206 12.5352C23.4729 12.75 23.6624 12.9199 23.889 13.0449C24.1155 13.166 24.3792 13.2266 24.68 13.2266C24.9768 13.2266 25.2366 13.166 25.4593 13.0449C25.6858 12.9199 25.8733 12.75 26.0218 12.5352C26.1702 12.3203 26.2815 12.0742 26.3557 11.7969C26.4339 11.5156 26.4729 11.2168 26.4729 10.9004V10.7656C26.4729 10.4531 26.4339 10.1582 26.3557 9.88086C26.2815 9.59961 26.1682 9.35156 26.0159 9.13672C25.8675 8.91797 25.68 8.74609 25.4534 8.62109C25.2307 8.49609 24.969 8.43359 24.6682 8.43359C24.3714 8.43359 24.1097 8.49609 23.8831 8.62109C23.6604 8.74609 23.4729 8.91797 23.3206 9.13672C23.1722 9.35156 23.0608 9.59961 22.9866 9.88086C22.9124 10.1582 22.8753 10.4531 22.8753 10.7656ZM32.6604 12.916V9.65234C32.6604 9.40234 32.6097 9.18555 32.5081 9.00195C32.4104 8.81445 32.262 8.66992 32.0628 8.56836C31.8636 8.4668 31.6175 8.41602 31.3245 8.41602C31.0511 8.41602 30.8108 8.46289 30.6038 8.55664C30.4007 8.65039 30.2405 8.77344 30.1233 8.92578C30.01 9.07812 29.9534 9.24219 29.9534 9.41797H28.8694C28.8694 9.19141 28.928 8.9668 29.0452 8.74414C29.1624 8.52148 29.3304 8.32031 29.5491 8.14062C29.7718 7.95703 30.0374 7.8125 30.346 7.70703C30.6585 7.59766 31.0061 7.54297 31.389 7.54297C31.8499 7.54297 32.2561 7.62109 32.6077 7.77734C32.9632 7.93359 33.2405 8.16992 33.4397 8.48633C33.6429 8.79883 33.7444 9.19141 33.7444 9.66406V12.6172C33.7444 12.8281 33.762 13.0527 33.7972 13.291C33.8362 13.5293 33.8929 13.7344 33.9671 13.9062V14H32.8362C32.7815 13.875 32.7386 13.709 32.7073 13.502C32.6761 13.291 32.6604 13.0957 32.6604 12.916ZM32.8479 10.1562L32.8597 10.918H31.764C31.4554 10.918 31.18 10.9434 30.9378 10.9941C30.6956 11.041 30.4925 11.1133 30.3284 11.2109C30.1643 11.3086 30.0393 11.4316 29.9534 11.5801C29.8675 11.7246 29.8245 11.8945 29.8245 12.0898C29.8245 12.2891 29.8694 12.4707 29.9593 12.6348C30.0491 12.7988 30.1839 12.9297 30.3636 13.0273C30.5472 13.1211 30.7718 13.168 31.0374 13.168C31.3694 13.168 31.6624 13.0977 31.9163 12.957C32.1702 12.8164 32.3714 12.6445 32.5198 12.4414C32.6722 12.2383 32.7542 12.041 32.7659 11.8496L33.2288 12.3711C33.2015 12.5352 33.1272 12.7168 33.0061 12.916C32.885 13.1152 32.7229 13.3066 32.5198 13.4902C32.3206 13.6699 32.0823 13.8203 31.805 13.9414C31.5315 14.0586 31.2229 14.1172 30.8792 14.1172C30.4495 14.1172 30.0725 14.0332 29.7483 13.8652C29.428 13.6973 29.178 13.4727 28.9983 13.1914C28.8225 12.9062 28.7347 12.5879 28.7347 12.2363C28.7347 11.8965 28.8011 11.5977 28.9339 11.3398C29.0667 11.0781 29.2581 10.8613 29.5081 10.6895C29.7581 10.5137 30.0589 10.3809 30.4104 10.291C30.762 10.2012 31.1546 10.1562 31.5882 10.1562H32.8479ZM39.4456 12.7695V5H40.5354V14H39.5393L39.4456 12.7695ZM35.18 10.9004V10.7773C35.18 10.293 35.2386 9.85352 35.3557 9.45898C35.4768 9.06055 35.6468 8.71875 35.8655 8.43359C36.0882 8.14844 36.3518 7.92969 36.6565 7.77734C36.9651 7.62109 37.3089 7.54297 37.6878 7.54297C38.0862 7.54297 38.4339 7.61328 38.7307 7.75391C39.0315 7.89062 39.2854 8.0918 39.4925 8.35742C39.7034 8.61914 39.8694 8.93555 39.9905 9.30664C40.1116 9.67773 40.1956 10.0977 40.2425 10.5664V11.1055C40.1995 11.5703 40.1155 11.9883 39.9905 12.3594C39.8694 12.7305 39.7034 13.0469 39.4925 13.3086C39.2854 13.5703 39.0315 13.7715 38.7307 13.9121C38.43 14.0488 38.0784 14.1172 37.6761 14.1172C37.305 14.1172 36.9651 14.0371 36.6565 13.877C36.3518 13.7168 36.0882 13.4922 35.8655 13.2031C35.6468 12.9141 35.4768 12.5742 35.3557 12.1836C35.2386 11.7891 35.18 11.3613 35.18 10.9004ZM36.2698 10.7773V10.9004C36.2698 11.2168 36.3011 11.5137 36.3636 11.791C36.43 12.0684 36.5315 12.3125 36.6682 12.5234C36.805 12.7344 36.9788 12.9004 37.1897 13.0215C37.4007 13.1387 37.6526 13.1973 37.9456 13.1973C38.305 13.1973 38.5999 13.1211 38.8304 12.9688C39.0647 12.8164 39.2522 12.6152 39.3929 12.3652C39.5335 12.1152 39.6429 11.8438 39.721 11.5508V10.1387C39.6741 9.92383 39.6057 9.7168 39.5159 9.51758C39.43 9.31445 39.3167 9.13477 39.1761 8.97852C39.0393 8.81836 38.8694 8.69141 38.6663 8.59766C38.4671 8.50391 38.2307 8.45703 37.9573 8.45703C37.6604 8.45703 37.4046 8.51953 37.1897 8.64453C36.9788 8.76562 36.805 8.93359 36.6682 9.14844C36.5315 9.35938 36.43 9.60547 36.3636 9.88672C36.3011 10.1641 36.2698 10.4609 36.2698 10.7773Z" fill="white"/>
<g clip-path="url(#clip0_761_5347)">
<path d="M62.9334 9.58337C62.7806 9.58337 62.6341 9.64483 62.526 9.75423C62.418 9.86362 62.3573 10.012 62.3573 10.1667V12.6243C62.3568 13.0553 62.1875 13.4686 61.8865 13.7734C61.5855 14.0781 61.1774 14.2496 60.7517 14.25H53.5928C53.1671 14.2496 52.759 14.0781 52.458 13.7734C52.157 13.4686 51.9877 13.0553 51.9872 12.6243V10.1667C51.9872 10.012 51.9265 9.86362 51.8185 9.75423C51.7104 9.64483 51.5639 9.58337 51.4111 9.58337C51.2583 9.58337 51.1117 9.64483 51.0037 9.75423C50.8957 9.86362 50.835 10.012 50.835 10.1667V12.6243C50.8357 13.3646 51.1265 14.0745 51.6436 14.598C52.1606 15.1215 52.8616 15.4159 53.5928 15.4167H60.7517C61.4829 15.4159 62.1839 15.1215 62.7009 14.598C63.218 14.0745 63.5088 13.3646 63.5095 12.6243V10.1667C63.5095 10.012 63.4488 9.86362 63.3408 9.75423C63.2327 9.64483 63.0862 9.58337 62.9334 9.58337Z" fill="white"/>
<path d="M54.1228 7.07912L56.5961 4.57487V11.9167C56.5961 12.0714 56.6568 12.2198 56.7648 12.3292C56.8729 12.4386 57.0194 12.5 57.1722 12.5C57.325 12.5 57.4716 12.4386 57.5796 12.3292C57.6876 12.2198 57.7483 12.0714 57.7483 11.9167V4.57487L60.2216 7.07912C60.3303 7.18538 60.4758 7.24418 60.6268 7.24285C60.7779 7.24152 60.9224 7.18017 61.0292 7.07202C61.136 6.96386 61.1966 6.81755 61.1979 6.66461C61.1992 6.51166 61.1412 6.36431 61.0362 6.25429L57.5795 2.75429C57.4715 2.64493 57.325 2.5835 57.1722 2.5835C57.0195 2.5835 56.8729 2.64493 56.7649 2.75429L53.3082 6.25429C53.2033 6.36431 53.1452 6.51166 53.1465 6.66461C53.1478 6.81755 53.2084 6.96386 53.3152 7.07202C53.422 7.18017 53.5665 7.24152 53.7176 7.24285C53.8687 7.24418 54.0142 7.18538 54.1228 7.07912Z" fill="white"/>
</g>
<defs>
<clipPath id="clip0_761_5347">
<rect width="13.8268" height="14" fill="white" transform="translate(50.2588 2)"/>
</clipPath>
</defs>
</svg>
